<?xml version="1.0" standalone="no" ?>
<!DOCTYPE svg PUBLIC "-//W3C//DTD SVG 1.1//EN" "http://www.w3.org/Graphics/SVG/1.1/DTD/svg11.dtd">
<svg width="250.000000" height="250.000000" viewBox="0 0 250.000000 250.000000" version="1.1" xmlns="http://www.w3.org/2000/svg">
	<desc>190198457325</desc>
	<rect x="0" y="0" width="250.000000" height="250.000000" fill="#ffffff" stroke="none" stroke-width="0" stroke-linecap="square" />
	<g id="bars" fill="#000000" stroke="none" stroke-width="0" stroke-linecap="square">
		<rect x="0.000000" y="0.000000" width="4.950495" height="250.000000" />
		<rect x="7.425743" y="0.000000" width="2.475248" height="250.000000" />
		<rect x="14.851485" y="0.000000" width="7.425743" height="250.000000" />
		<rect x="27.227723" y="0.000000" width="4.950495" height="250.000000" />
		<rect x="37.128713" y="0.000000" width="2.475248" height="250.000000" />
		<rect x="42.079208" y="0.000000" width="7.425743" height="250.000000" />
		<rect x="54.455446" y="0.000000" width="4.950495" height="250.000000" />
		<rect x="64.356436" y="0.000000" width="4.950495" height="250.000000" />
		<rect x="71.782178" y="0.000000" width="4.950495" height="250.000000" />
		<rect x="81.683168" y="0.000000" width="9.900990" height="250.000000" />
		<rect x="94.059406" y="0.000000" width="2.475248" height="250.000000" />
		<rect x="103.960396" y="0.000000" width="2.475248" height="250.000000" />
		<rect x="108.910891" y="0.000000" width="2.475248" height="250.000000" />
		<rect x="113.861386" y="0.000000" width="7.425743" height="250.000000" />
		<rect x="123.762376" y="0.000000" width="4.950495" height="250.000000" />
		<rect x="136.138614" y="0.000000" width="2.475248" height="250.000000" />
		<rect x="148.514851" y="0.000000" width="4.950495" height="250.000000" />
		<rect x="155.940594" y="0.000000" width="2.475248" height="250.000000" />
		<rect x="163.366337" y="0.000000" width="7.425743" height="250.000000" />
		<rect x="175.742574" y="0.000000" width="2.475248" height="250.000000" />
		<rect x="180.693069" y="0.000000" width="4.950495" height="250.000000" />
		<rect x="190.594059" y="0.000000" width="2.475248" height="250.000000" />
		<rect x="198.019802" y="0.000000" width="9.900990" height="250.000000" />
		<rect x="212.871287" y="0.000000" width="2.475248" height="250.000000" />
		<rect x="217.821782" y="0.000000" width="4.950495" height="250.000000" />
		<rect x="230.198020" y="0.000000" width="7.425743" height="250.000000" />
		<rect x="240.099010" y="0.000000" width="2.475248" height="250.000000" />
		<rect x="245.049505" y="0.000000" width="4.950495" height="250.000000" />
	</g>
</svg>
