<svg xmlns="http://www.w3.org/2000/svg" width="435.3144" height="87.1996" viewBox="0 0 435.3144 87.1996"><path d="M110.4389,87.018h-2.6611l-.7412-2.1016h-3.72l-.7413,2.1016h-2.54l3.9316-10.4492h2.54Zm-3.9619-4.0068-1.3-3.75-1.3008,3.75Z" style="fill:#f15622"/><path d="M121.4594,85.7778a6.154,6.154,0,0,1-4.0224,1.24h-3.5381V76.5844h3.5381a6.0729,6.0729,0,0,1,4.0224,1.2549,4.8506,4.8506,0,0,1,1.6934,3.9619A4.9056,4.9056,0,0,1,121.4594,85.7778ZM119.75,79.351a3.14,3.14,0,0,0-2.1777-.74h-1.24v6.3359h1.24a2.8951,2.8951,0,0,0,3.1006-3.1455A3.2321,3.2321,0,0,0,119.75,79.351Z" style="fill:#f15622"/><path d="M134.6577,85.7778a6.1541,6.1541,0,0,1-4.0225,1.24h-3.5381V76.5844h3.5381a6.073,6.073,0,0,1,4.0225,1.2549,4.8509,4.8509,0,0,1,1.6933,3.9619A4.9059,4.9059,0,0,1,134.6577,85.7778Zm-1.709-6.4268a3.14,3.14,0,0,0-2.1777-.74h-1.2393v6.3359h1.2393a2.895,2.895,0,0,0,3.1005-3.1455A3.2321,3.2321,0,0,0,132.9487,79.351Z" style="fill:#f15622"/><path d="M148.55,87.018h-2.8428l-2.1924-3.9922h-.7715V87.018h-2.4492V76.5844h3.75a4.5368,4.5368,0,0,1,2.7519.7412,3.15,3.15,0,0,1-.8925,5.3828Zm-3.5987-8.2715a2.0209,2.0209,0,0,0-1.2558-.2724h-.9668v2.6767h.9668a2.0154,2.0154,0,0,0,1.2558-.2871,1.1687,1.1687,0,0,0,.5293-1.0586A1.1859,1.1859,0,0,0,144.9516,78.7465Z" style="fill:#f15622"/><path d="M158.83,87.018H151.935V76.5844h6.7588v1.95H154.37v2.1328h4.082v1.95H154.37v2.42h4.46Z" style="fill:#f15622"/><path d="M168.7319,86.3373a4.4374,4.4374,0,0,1-2.8281.8623A5.6515,5.6515,0,0,1,162.2,85.6264l1.209-1.7842a4.3037,4.3037,0,0,0,2.7226,1.3154c.7861,0,1.3906-.3779,1.3906-1.0732,0-.7109-.77-.9824-1.2246-1.1494s-1.24-.4385-1.5879-.59a4.0836,4.0836,0,0,1-1.24-.7558,2.5761,2.5761,0,0,1-.8164-2.0108,2.94,2.94,0,0,1,1.0889-2.2832,4.2635,4.2635,0,0,1,2.7519-.832,5.1338,5.1338,0,0,1,3.3115,1.2852l-1.0429,1.709a3.5964,3.5964,0,0,0-2.3291-1.0586c-.7862,0-1.36.3027-1.36.9375s.59.8769,1.0586,1.0586c.4531.1816,1.2246.4531,1.5576.59a4.18,4.18,0,0,1,1.4512.8467,2.7285,2.7285,0,0,1,.8164,2.0107A3.16,3.16,0,0,1,168.7319,86.3373Z" style="fill:#f15622"/><path d="M179.4956,86.3373a4.4375,4.4375,0,0,1-2.8282.8623,5.6519,5.6519,0,0,1-3.7041-1.5732l1.209-1.7842a4.3042,4.3042,0,0,0,2.7227,1.3154c.7861,0,1.3906-.3779,1.3906-1.0732,0-.7109-.77-.9824-1.2246-1.1494s-1.24-.4385-1.5879-.59a4.0836,4.0836,0,0,1-1.24-.7558,2.5758,2.5758,0,0,1-.8164-2.0108,2.94,2.94,0,0,1,1.0888-2.2832,4.264,4.264,0,0,1,2.752-.832,5.1342,5.1342,0,0,1,3.3115,1.2852l-1.043,1.709a3.5964,3.5964,0,0,0-2.3291-1.0586c-.7861,0-1.36.3027-1.36.9375s.59.8769,1.0586,1.0586c.4531.1816,1.2246.4531,1.5576.59a4.18,4.18,0,0,1,1.4512.8467,2.7289,2.7289,0,0,1,.8164,2.0107A3.1606,3.1606,0,0,1,179.4956,86.3373Z" style="fill:#f15622"/><path d="M199.5258,87.018h-2.6611l-.7412-2.1016h-3.72l-.7412,2.1016h-2.54l3.9317-10.4492h2.54Zm-3.9619-4.0068-1.3-3.75-1.3008,3.75Z" style="fill:#f15622"/><path d="M211.2729,82.6625a4.4818,4.4818,0,0,1-.998,3.2823,5.2275,5.2275,0,0,1-6.7588,0,4.543,4.543,0,0,1-.9834-3.2823V76.5844h2.4648v6.0781a2.6421,2.6421,0,0,0,.4082,1.7393,2.0482,2.0482,0,0,0,2.9942,0,2.6421,2.6421,0,0,0,.4082-1.7393V76.5844h2.4648Z" style="fill:#f15622"/><path d="M222.6108,78.52h-2.6914v8.498h-2.45V78.52h-2.6914V76.5844h7.833Z" style="fill:#f15622"/><path d="M230.5161,87.2a5.393,5.393,0,1,1,5.5342-5.3837A5.1981,5.1981,0,0,1,230.5161,87.2Zm0-8.6953a3.2656,3.2656,0,1,0,3.0547,3.251A3.0092,3.0092,0,0,0,230.5161,78.5043Z" style="fill:#f15622"/><path d="M248.7045,85.7778A4.9478,4.9478,0,0,1,244.9389,87.2a5.384,5.384,0,1,1,0-10.7666,5.1012,5.1012,0,0,1,3.584,1.18l-.7568,2.0264a3.9955,3.9955,0,0,0-2.6914-1.0889,3.2145,3.2145,0,0,0,0,6.4268,3.8442,3.8442,0,0,0,2.8125-1.1045Z" style="fill:#f15622"/><path d="M257.0932,87.2a5.393,5.393,0,1,1,5.5342-5.3837A5.1981,5.1981,0,0,1,257.0932,87.2Zm0-8.6953a3.2656,3.2656,0,1,0,3.0547,3.251A3.0092,3.0092,0,0,0,257.0932,78.5043Z" style="fill:#f15622"/><path d="M278.2739,87.018H275.87l-.4082-7.1074h-.03l-2.2373,7.1074h-1.9355l-2.2539-7.1074h-.045l-.3779,7.1074h-2.4043l.7861-10.4336h3.085L272.226,83.45h.03l2.1465-6.8652h3.1006Z" style="fill:#f15622"/><path d="M288.81,82.3754a4.1792,4.1792,0,0,1-2.7217.7862h-1.2851V87.018H282.354V76.5844h3.7343a4.1849,4.1849,0,0,1,2.7217.7861,3.0367,3.0367,0,0,1,1.0889,2.4952A3.0876,3.0876,0,0,1,288.81,82.3754Zm-1.89-3.6133a1.9226,1.9226,0,0,0-1.18-.288h-.9531v2.7978h.9531a1.9227,1.9227,0,0,0,1.18-.2871,1.3391,1.3391,0,0,0,.499-1.1191A1.3062,1.3062,0,0,0,286.92,78.7621Z" style="fill:#f15622"/><path d="M299.7094,87.018h-6.0478V76.5844h2.4346v8.4072h3.6132Z" style="fill:#f15622"/><path d="M310.2768,87.018h-6.8945V76.5844h6.7588v1.95h-4.3242v2.1328h4.082v1.95h-4.082v2.42h4.46Z" style="fill:#f15622"/><path d="M321.2983,78.52h-2.6914v8.498h-2.45V78.52h-2.6914V76.5844h7.833Z" style="fill:#f15622"/><path d="M331.7739,87.018h-6.8945V76.5844h6.7587v1.95h-4.3252v2.1328h4.0831v1.95h-4.0831v2.42h4.461Z" style="fill:#f15622"/><path d="M350.7924,87.018h-2.6611l-.7412-2.1016h-3.72l-.7412,2.1016h-2.54l3.9317-10.4492h2.54Zm-3.9619-4.0068-1.3-3.75-1.3008,3.75Z" style="fill:#f15622"/><path d="M363.6879,87.018h-2.5107l-4.581-7.0771s.0449,1.2558.0449,2.3593V87.018h-2.3887V76.5844h2.6152l4.4766,7.0166s-.0459-1.18-.0459-2.2842V76.5844h2.39Z" style="fill:#f15622"/><path d="M376.75,76.5844l-3.63,6.2148V87.018H370.67V82.7992l-3.6289-6.2148h2.7216l2.1319,4.1582,2.1318-4.1582Z" style="fill:#f15622"/><path d="M387.0444,78.52H384.353v8.498h-2.45V78.52h-2.6914V76.5844h7.833Z" style="fill:#f15622"/><path d="M399.7133,87.018h-2.45v-4.37h-4.1884v4.37h-2.4493V76.5844h2.4493v4.0371h4.1884V76.5844h2.45Z" style="fill:#f15622"/><path d="M406.6352,87.018H404.186V76.5844h2.4492Z" style="fill:#f15622"/><path d="M420.5454,87.018h-2.5108l-4.581-7.0771s.0449,1.2558.0449,2.3593V87.018H411.11V76.5844h2.6153l4.4765,7.0166s-.0459-1.18-.0459-2.2842V76.5844h2.39Z" style="fill:#f15622"/><path d="M434.559,85.4a6.1383,6.1383,0,0,1-4.6425,1.7842,5.3759,5.3759,0,1,1,.03-10.751,5.3055,5.3055,0,0,1,4.295,1.8145l-1.6182,1.4062a3.4592,3.4592,0,0,0-2.6768-1.1943c-1.6777,0-2.9785,1.2246-2.9785,3.3418a3.0233,3.0233,0,0,0,3.0244,3.3418c1.6934,0,2.1778-.665,2.1778-.665V82.935H429.977V81.0756h4.582Z" style="fill:#f15622"/><path d="M199.4638,61.0424c3.833,0,7.5166-1.6543,7.5166-5.8633s-5.9384-5.6377-8.6445-6.539c-2.5557-.8272-10.0723-2.5557-10.0723-9.9971,0-6.4639,5.6377-9.8467,11.3506-9.8467s9.0947,1.8789,11.5752,4.1338l-2.706,3.3828a13.8621,13.8621,0,0,0-8.8692-3.2324c-3.6836,0-6.2392,1.7285-6.2392,5.0361,0,3.2325,3.6084,4.7354,7.5166,6.0137,3.5332,1.2022,11.35,3.0059,11.35,10.5977,0,6.7646-5.6367,10.749-12.9278,10.749-5.788,0-10.4482-2.4805-13.0791-6.2393l2.9317-3.5322C192.5488,59.5385,196.081,61.0424,199.4638,61.0424Z" style="fill:#f58020"/><path d="M245.4619,29.3979V64.725H240.05l-.0752-5.6377c-1.5782,3.7588-6.0879,6.2393-11.1241,6.2393-10.0722,0-12.5527-6.1641-12.5527-14.582V29.3979h5.6377V50.3686c0,6.539,2.1045,10.1474,8.6436,10.1474,6.3134,0,9.3955-5.4121,9.3955-11.5751V29.3979Z" style="fill:#f58020"/><path d="M282.0654,43.3784V64.725h-5.5625V43.7543c0-6.54-2.1045-10.1474-8.6436-10.1474-6.3144,0-9.4716,5.1865-9.4716,11.2744V64.725h-5.5616V29.4731h5.5616V35.185h.2255c1.5791-3.7578,5.9385-6.3887,10.9747-6.3887C279.66,28.7963,282.0654,34.9594,282.0654,43.3784Z" style="fill:#f58020"/><path d="M299.1992,61.0424c3.833,0,7.5166-1.6543,7.5166-5.8633s-5.9385-5.6377-8.6446-6.539c-2.5556-.8272-10.0722-2.5557-10.0722-9.9971,0-6.4639,5.6377-9.8467,11.3506-9.8467s9.0947,1.8789,11.5752,4.1338l-2.7061,3.3828a13.8621,13.8621,0,0,0-8.8691-3.2324c-3.6836,0-6.2393,1.7285-6.2393,5.0361,0,3.2325,3.6084,4.7354,7.5166,6.0137,3.5332,1.2022,11.35,3.0059,11.35,10.5977,0,6.7646-5.6367,10.749-12.9277,10.749-5.7881,0-10.4483-2.4805-13.0791-6.2393l2.9316-3.5322C292.2841,59.5385,295.8164,61.0424,299.1992,61.0424Z" style="fill:#f58020"/><path d="M346.1748,43.3784V64.725h-5.5616V43.7543c0-6.54-2.1045-10.1474-8.6445-10.1474-6.3135,0-9.4707,5.1865-9.4707,11.2744V64.725h-5.5615V12.8617h5.5615V35.185h.2256c1.5791-3.7578,5.9385-6.3887,10.9746-6.3887C343.7705,28.7963,346.1748,34.9594,346.1748,43.3784Z" style="fill:#f58020"/><path d="M356.8466,21.2045a3.8342,3.8342,0,1,1,3.9082-3.833A3.7935,3.7935,0,0,1,356.8466,21.2045Zm-2.7812,8.2686h5.5615V64.725h-5.5615Z" style="fill:#f58020"/><path d="M396.7587,43.3784V64.725h-5.5625V43.7543c0-6.54-2.1044-10.1474-8.6435-10.1474-6.3145,0-9.4717,5.1865-9.4717,11.2744V64.725H367.52V29.4731h5.5615V35.185h.2256c1.5791-3.7578,5.9385-6.3887,10.9746-6.3887C394.3535,28.7963,396.7587,34.9594,396.7587,43.3784Z" style="fill:#f58020"/><path d="M418.9287,65.477c-10.3731,0-17.3633-7.1406-17.3633-18.4912,0-9.9961,6.84-18.1895,17.3633-18.1895,9.6963,0,16.3857,6.99,16.3857,16.6865a26.3241,26.3241,0,0,1-.2256,2.9317H407.2773c.0752,7.291,5.1113,12.4023,12.6279,12.4023a19.4953,19.4953,0,0,0,11.876-4.4355l2.4053,3.3076C430.955,63.5229,425.8437,65.477,418.9287,65.477Zm-.2256-32.0205c-7.0654-.0752-10.8994,5.2617-11.3506,10.749h22.3242C429.6767,39.2446,426.4443,33.5317,418.7031,33.4565Z" style="fill:#f58020"/><path d="M153.914,27.7172,143.455,64.725H131.1191l-4.9883-20.9179L121.1972,64.725H108.8613L98.4023,27.7172h12.6035l4.56,20.6494,4.5586-20.6494h12.0683l4.5586,20.6494L141.31,27.7172Z" style="fill:#241f20"/><path d="M179.2334,50.2436c-2.6817,2.1455-6.2754,2.95-10.2979,2.95h-3.97V64.725H152.8447V27.7172h16.0908c4.0225,0,7.6162.8047,10.2979,2.95s4.1836,5.3633,4.1836,9.8145C183.417,44.88,181.915,48.0981,179.2334,50.2436Zm-9.3868-12.711a4.4771,4.4771,0,0,0-2.9492-.6972H164.913v7.24h1.9844a4.8328,4.8328,0,0,0,2.9492-.6435,3.2669,3.2669,0,0,0,1.3409-2.95A3.2594,3.2594,0,0,0,169.8466,37.5326Z" style="fill:#241f20"/><path d="M19.3833,24.8835c.229-.1206.458-.2409.7-.3485a40.8881,40.8881,0,0,1,5.5234-1.8036c.35-.2881.6987-.5772,1.0635-.8472a21.2564,21.2564,0,0,1,5.7519-2.8376c-.8481.12-1.6953.2563-2.539.4279a30.9889,30.9889,0,0,0-8.1451,2.9661Q20.5012,23.6019,19.3833,24.8835Z" style="fill:none"/><path d="M13.0068,26.1078A26.4671,26.4671,0,0,1,16.415,15.891c-.7915.7537-1.5532,1.5441-2.2754,2.3787A34.8265,34.8265,0,0,0,6.6069,38.6016,27.1465,27.1465,0,0,1,13.0068,26.1078Z" style="fill:none"/><path d="M18.8789,72.3278a18.9426,18.9426,0,0,1-3.4776-4.7334A34.1656,34.1656,0,0,1,7.3925,56.2629a40.16,40.16,0,0,1-.5268-30.0884A34.8338,34.8338,0,0,0,2.1713,41.0014,35.8192,35.8192,0,0,0,5.7055,58.9939,49.201,49.201,0,0,0,16.63,74.2555a25.8853,25.8853,0,0,0,13.1734,6.5063A25.9671,25.9671,0,0,0,41.145,79.7055a40.4669,40.4669,0,0,1-6.3618-.3895C29,78.5126,23.1362,76.4242,18.8789,72.3278Z" style="fill:none"/><path d="M52.0527,5.7392c.6.1775,1.1929.3769,1.7817.5869.88.1387,1.76.29,2.6368.4678A25.3236,25.3236,0,0,0,37.3535,2.9278a34.7472,34.7472,0,0,0-7.7481,2.73A39.8261,39.8261,0,0,1,52.0527,5.7392Z" style="fill:none"/><path d="M20.5659,20.2778c.0429-.0228.0874-.0416.13-.064a36.4152,36.4152,0,0,1,44.5855-3.287,27.2593,27.2593,0,0,0-9.2129-7.0912c-1.0122-.4763-2.0508-.8871-3.1016-1.264-.87-.131-1.7392-.25-2.6015-.3424a66.72,66.72,0,0,0-15.5025-.08c-3.936.482-8.0322,1.4458-11.4057,3.6949-4.2012,2.7571-6.3672,6.9-7.4893,11.462A26.6655,26.6655,0,0,1,20.5659,20.2778Z" style="fill:none"/><path d="M31.0078,75.7013A30.8528,30.8528,0,0,1,24.9917,73.84c4.998,2.7439,11.21,3.7024,16.9248,3.4655A1.2451,1.2451,0,0,1,42.18,76.46q-.9718-.1237-1.9321-.283A35.91,35.91,0,0,1,31.0078,75.7013Z" style="fill:none"/><path d="M12.5371,30.8931c.0049-.0821.0122-.1638.0171-.2458a22.6327,22.6327,0,0,0-2.6714,5.4543A26.08,26.08,0,0,0,8.64,47.14c.0107-.14.0205-.28.0342-.4187a1.1562,1.1562,0,0,1-.0772-.4991,39.7035,39.7035,0,0,1,.4019-4.3376A36.0338,36.0338,0,0,1,12.5371,30.8931Z" style="fill:none"/><path d="M77.1943,23.089c-3.0991-6.0991-8.5508-9.8713-14.7065-12.1435a28.742,28.742,0,0,1,8.28,9.5732c.2813.551.5415,1.1089.7876,1.671l.0156.0158A25.2385,25.2385,0,0,1,77.9975,35.7c1.5259,10.4421-2.33,21.2056-8.7554,29.3986a39.6126,39.6126,0,0,1-5.3789,5.6623A27.6974,27.6974,0,0,1,60.27,73.8956a23.8469,23.8469,0,0,0,6.8843-2.2907c3.6142-1.9279,6.1045-5.3818,7.9521-8.916a44.96,44.96,0,0,0,4.3374-13.4944,61.5044,61.5044,0,0,0,.7227-14.3781A29.7755,29.7755,0,0,0,77.1943,23.089Z" style="fill:none"/><path d="M69.0815,56.7449a60.9828,60.9828,0,0,0,2.731-16.5467,42.901,42.901,0,0,0-1.3658-13.9764,27.5368,27.5368,0,0,0-1.1123-2.8728,33.8273,33.8273,0,0,0-16.72-9.3365,35.15,35.15,0,0,0-6.5059-.8032,33.9476,33.9476,0,0,0-17.0507,3.9931A41.7755,41.7755,0,0,1,50.687,18.35c4.6592,1.5261,9.1572,3.6948,12.37,7.55A27.1668,27.1668,0,0,1,68.84,38.7524c1.7065,8.9979.0293,19.3349-5.8018,26.6893a24.9542,24.9542,0,0,1-2.311,3.6731,41.0668,41.0668,0,0,1-2.9082,3.108,33.31,33.31,0,0,0,4.3848-3.22A33.4514,33.4514,0,0,0,69.0815,56.7449Z" style="fill:none"/><path d="M71.6235,56.8725c3.79-7.3245,5.5913-16.0053,3.3213-23.9839a21.6411,21.6411,0,0,0-1.1167-2.9362,34.2352,34.2352,0,0,1,.394,3.6591,70.2541,70.2541,0,0,1-1.1245,17.43A53.9678,53.9678,0,0,1,71.6235,56.8725Z" style="fill:none"/><path d="M65.4668,35.2984c.1865.444.3457.8959.5112,1.3457-1.3355-5.0065-3.9282-9.6182-8.2222-12.5911A25.248,25.248,0,0,0,53.7,21.8747c.4467.2311.8886.4739,1.3247.7324A26.1123,26.1123,0,0,1,65.4668,35.2984Z" style="fill:none"/><path d="M76.7124,18.0287c-4.54-5.9839-11.3672-9.1765-18.606-10.8713a1.29,1.29,0,0,0,.0508-2.1411A27.3585,27.3585,0,0,0,37.0322.518C29.9633,1.9639,23.6181,5.9,17.9956,10.2372,8.0351,18.1091.4043,29.4347.0029,42.3669A40.4392,40.4392,0,0,0,4.581,61.4841c2.9722,5.7832,6.7476,11.406,11.8882,15.5827a27.3987,27.3987,0,0,0,14.6191,6.1851,28.929,28.929,0,0,0,15.7432-3.2934q1.0737-.537,2.1045-1.1322a40.205,40.205,0,0,0,4.1611-1.1169c.6333-.2236,1.2549-.4751,1.8682-.7433,1.0933-.0719,2.1846-.167,3.2725-.3009,4.2568-.5623,8.7553-1.6064,12.2089-4.2571a26.1986,26.1986,0,0,0,7.9522-11.0847,56.0531,56.0531,0,0,0,3.8555-15.2616C83.3789,36.5835,82.8169,25.82,76.7124,18.0287ZM37.3535,2.9278A25.3236,25.3236,0,0,1,56.4712,6.7939c-.8765-.1775-1.7564-.3291-2.6368-.4678-.5888-.21-1.1816-.4094-1.7817-.5869a39.8261,39.8261,0,0,0-22.4473-.0813A34.7472,34.7472,0,0,1,37.3535,2.9278Zm-13.896,8.9159c3.3735-2.2491,7.47-3.2129,11.4057-3.6949a66.72,66.72,0,0,1,15.5025.08c.8623.0927,1.7314.2114,2.6015.3424,1.0508.3769,2.0894.7877,3.1016,1.264a27.2593,27.2593,0,0,1,9.2129,7.0912,36.4152,36.4152,0,0,0-44.5855,3.287c-.0429.0224-.0874.0412-.13.064a26.6655,26.6655,0,0,0-4.5977,3.0279C17.09,18.7442,19.2563,14.6008,23.4575,11.8437ZM21.7382,22.4406a30.9889,30.9889,0,0,1,8.1451-2.9661c.8437-.1716,1.6909-.3082,2.539-.4279A21.2564,21.2564,0,0,0,26.67,21.8842c-.3648.27-.7139.5591-1.0635.8472a40.8881,40.8881,0,0,0-5.5234,1.8036c-.2422.1076-.4712.2279-.7.3485Q20.5,23.6045,21.7382,22.4406ZM14.14,18.27c.7222-.8346,1.4839-1.625,2.2754-2.3787a26.4671,26.4671,0,0,0-3.4082,10.2168,27.1465,27.1465,0,0,0-6.4,12.4938A34.8265,34.8265,0,0,1,14.14,18.27ZM8.6743,46.7216c-.0137.1392-.0235.2789-.0342.4187A26.08,26.08,0,0,1,9.8828,36.1016a22.6327,22.6327,0,0,1,2.6714-5.4543c-.0049.082-.0122.1637-.0171.2458A36.0338,36.0338,0,0,0,8.999,41.8849a39.7035,39.7035,0,0,0-.4019,4.3376A1.1562,1.1562,0,0,0,8.6743,46.7216Zm21.1289,34.04A25.8853,25.8853,0,0,1,16.63,74.2555,49.201,49.201,0,0,1,5.7055,58.9939,35.8192,35.8192,0,0,1,2.1713,41.0014,34.8338,34.8338,0,0,1,6.8657,26.1745a40.16,40.16,0,0,0,.5268,30.0884,34.1656,34.1656,0,0,0,8.0088,11.3315,18.9426,18.9426,0,0,0,3.4776,4.7334C23.1362,76.4242,29,78.5126,34.7832,79.316a40.4669,40.4669,0,0,0,6.3618.3895A25.9671,25.9671,0,0,1,29.8032,80.7618Zm12.1133-3.4563c-5.7149.2369-11.9268-.7216-16.9248-3.4655a30.8528,30.8528,0,0,0,6.0161,1.8613,35.91,35.91,0,0,0,9.24.4759q.96.16,1.9321.283A1.2451,1.2451,0,0,0,41.9165,77.3055Zm13.4972-5.98c-.3027,5.04-7.2018,6.8234-10.34,3.8147-.0854.004-.1712.0159-.2565.019C35.64,75.49,23.5682,71.3387,16.7523,65.07c-7.45-6.8519-6.4282-20.82-3.7987-29.6421,1.4226-4.773,4.0006-9.639,9.5849-10.0221a8.9,8.9,0,0,1,3.703.5261A37.8147,37.8147,0,0,1,40.87,24.7488a15.7131,15.7131,0,0,1,11.1055.5686,19.7586,19.7586,0,0,1,2.1006,1.1253A5.9712,5.9712,0,0,1,62.0012,34.05c.1.1436.2088.2843.3054.4287,3.7263,5.5749,4.7812,12.8229,2.2638,18.8215,1.3342,2.36,1.49,5.3572-.7261,7.4029a8.4808,8.4808,0,0,1-4.253,2.3726c-.1064.0226-.2176.0365-.3273.0532-.07.5261-.1592,1.0131-.2118,1.3509A11.2985,11.2985,0,0,1,56.96,69.6463,11.5058,11.5058,0,0,1,55.4137,71.3259ZM53.7,21.8747a25.248,25.248,0,0,1,4.0556,2.1783c4.294,2.9729,6.8867,7.5846,8.2222,12.5911-.1655-.45-.3247-.9017-.5112-1.3457A26.1123,26.1123,0,0,0,55.0249,22.6071C54.5888,22.3486,54.1469,22.1058,53.7,21.8747Zm4.1191,50.3481a41.0668,41.0668,0,0,0,2.9082-3.108,24.9542,24.9542,0,0,0,2.311-3.6731C68.87,58.0873,70.5468,47.75,68.84,38.7524A27.1668,27.1668,0,0,0,63.0571,25.9c-3.2129-3.8556-7.7109-6.0243-12.37-7.55a41.7755,41.7755,0,0,0-21.6289-1.1476,33.9476,33.9476,0,0,1,17.0507-3.9931,35.15,35.15,0,0,1,6.5059.8032,33.8273,33.8273,0,0,1,16.72,9.3365,27.5368,27.5368,0,0,1,1.1123,2.8728,42.901,42.901,0,0,1,1.3658,13.9764,60.9828,60.9828,0,0,1-2.731,16.5467,33.4514,33.4514,0,0,1-6.8774,12.2584A33.31,33.31,0,0,1,57.8193,72.2228ZM74.2221,33.6115a34.2352,34.2352,0,0,0-.394-3.6591,21.6411,21.6411,0,0,1,1.1167,2.9362c2.27,7.9786.4692,16.6594-3.3213,23.9839a53.9678,53.9678,0,0,0,1.4741-5.8306A70.2541,70.2541,0,0,0,74.2221,33.6115Zm5.2212,15.583a44.96,44.96,0,0,1-4.3374,13.4944c-1.8476,3.5342-4.3379,6.9881-7.9521,8.916A23.8469,23.8469,0,0,1,60.27,73.8956a27.6974,27.6974,0,0,0,3.5937-3.1347,39.6126,39.6126,0,0,0,5.3789-5.6623c6.4258-8.193,10.2813-18.9565,8.7554-29.3986a25.2385,25.2385,0,0,0-6.4263-13.4945l-.0156-.0158c-.2461-.5621-.5063-1.12-.7876-1.671a28.742,28.742,0,0,0-8.28-9.5732C68.6435,13.2177,74.0952,16.99,77.1943,23.089A29.7755,29.7755,0,0,1,80.166,34.8164,61.5044,61.5044,0,0,1,79.4433,49.1945Z" style="fill:#ffdf21"/><path d="M59.264,63.1292c.11-.0167.2209-.0306.3273-.0532a8.4808,8.4808,0,0,0,4.253-2.3726c2.2158-2.0457,2.06-5.0432.7261-7.4029,2.5174-5.9986,1.4625-13.2466-2.2638-18.8215-.0966-.1444-.2056-.2851-.3054-.4287a5.9712,5.9712,0,0,0-7.9255-7.6076,19.7586,19.7586,0,0,0-2.1006-1.1253A15.7131,15.7131,0,0,0,40.87,24.7488,37.8147,37.8147,0,0,0,26.2415,25.932a8.9,8.9,0,0,0-3.703-.5261c-5.5843.3831-8.1623,5.2491-9.5849,10.0221-2.6295,8.822-3.6513,22.79,3.7987,29.6421C23.5682,71.3387,35.64,75.49,44.8169,75.16c.0853-.0031.1711-.015.2565-.019,3.1385,3.0087,10.0376,1.2249,10.34-3.8147a11.5058,11.5058,0,0,0,1.546-1.68A11.2985,11.2985,0,0,0,59.0522,64.48C59.1048,64.1423,59.1936,63.6553,59.264,63.1292Z" style="fill:#ffde1b"/><path d="M68.5866,40.379c-.4181-4.9557-.8356-9.9443-4.1019-13.9565A25.6673,25.6673,0,0,0,56.5628,19.93c-8.8047-5.8493-22.35-2.8158-31.8267,4.1221-6.3555,2.2529-10.461,8.7086-11.3511,15.3088a19.3783,19.3783,0,0,0-.1875,4.3457C12.08,66.4014,45.7986,84.0778,62.4636,64.9833a31.3885,31.3885,0,0,0,4.2187-10.5267A19.5979,19.5979,0,0,0,68.5866,40.379Z" style="fill:#f58020"/></svg>
